<?xml version="1.0" standalone="no"?>
<!DOCTYPE svg PUBLIC "-//W3C//DTD SVG 20010904//EN"
 "http://www.w3.org/TR/2001/REC-SVG-20010904/DTD/svg10.dtd">
<svg version="1.0" xmlns="http://www.w3.org/2000/svg"
 width="512.000000pt" height="512.000000pt" viewBox="0 0 512.000000 512.000000"
 preserveAspectRatio="xMidYMid meet">
<metadata>
Created by potrace 1.14, written by Peter Selinger 2001-2017
</metadata>
<g transform="translate(0.000000,512.000000) scale(0.100000,-0.100000)"
fill="#000000" stroke="none">
<path d="M1835 4206 c-130 -31 -233 -114 -292 -233 -34 -69 -38 -85 -41 -173
-3 -75 0 -111 13 -152 21 -62 57 -128 85 -153 11 -10 20 -22 20 -27 0 -4 -65
-8 -145 -8 -142 0 -147 -1 -170 -25 l-25 -24 0 -366 0 -367 29 -29 c20 -19 40
-29 60 -29 l31 0 2 -741 3 -741 28 -24 28 -24 1099 0 1099 0 28 24 28 24 3
741 2 741 31 0 c20 0 40 10 60 29 l29 29 0 367 0 366 -25 24 c-23 24 -28 25
-170 25 -80 0 -145 4 -145 8 0 5 9 17 20 27 28 25 64 91 85 153 13 41 16 77
13 152 -3 88 -7 104 -41 173 -128 259 -470 327 -673 135 -31 -29 -80 -89 -109
-133 -53 -80 -161 -290 -205 -397 -22 -53 -40 -74 -40 -47 0 6 -38 90 -85 186
-164 338 -270 456 -443 492 -66 14 -122 13 -187 -3z m179 -160 c69 -21 112
-59 174 -154 51 -78 181 -329 196 -379 6 -20 2 -22 -50 -29 -73 -9 -326 3
-425 21 -90 15 -146 42 -184 87 -96 113 -92 267 9 375 78 83 175 110 280 79z
m1256 -2 c74 -22 160 -108 180 -179 37 -132 -9 -258 -115 -321 -26 -15 -77
-31 -122 -39 -101 -17 -355 -30 -427 -21 -69 9 -71 -3 28 196 83 167 161 287
211 325 68 53 154 66 245 39z m-500 -999 l0 -255 -210 0 -210 0 0 255 0 255
210 0 210 0 0 -255z m0 -1110 l0 -685 -210 0 -210 0 0 685 0 685 210 0 210 0
0 -685z"/>
</g>
</svg>
